<?xml version="1.0" standalone="no"?>
<!DOCTYPE svg PUBLIC "-//W3C//DTD SVG 20010904//EN"
 "http://www.w3.org/TR/2001/REC-SVG-20010904/DTD/svg10.dtd">
<svg version="1.0" xmlns="http://www.w3.org/2000/svg"
 width="212.000000pt" height="238.000000pt" viewBox="0 0 212.000000 238.000000"
 preserveAspectRatio="xMidYMid meet">
<metadata>
Created by potrace 1.16, written by Peter Selinger 2001-2019
</metadata>
<g transform="translate(0.000000,238.000000) scale(0.100000,-0.100000)"
fill="#000000" stroke="none">
<path d="M686 2270 c-21 -4 -48 -5 -59 -2 -15 4 -18 2 -12 -8 5 -9 4 -11 -4
-6 -28 18 -98 -63 -85 -98 3 -9 1 -16 -5 -16 -8 0 -11 -254 -11 -890 0 -571 3
-890 10 -890 5 0 7 -7 4 -15 -14 -35 67 -118 97 -100 7 5 10 4 6 -3 -10 -15
72 -27 86 -13 8 8 110 10 337 9 277 -2 301 -3 160 -8 l-165 -6 179 0 c135 1
180 4 184 14 2 6 8 9 13 6 13 -8 55 21 76 52 16 24 17 97 18 945 1 505 -1 916
-6 914 -4 -3 -5 3 -2 13 10 41 -75 108 -123 96 -19 -5 -25 -4 -20 5 4 6 3 11
-3 11 -5 0 -12 -6 -14 -12 -4 -10 -6 -10 -6 0 -1 6 -10 12 -20 12 -11 0 -22
-6 -24 -12 -4 -10 -6 -10 -6 0 -1 9 -64 12 -283 11 -156 -1 -301 -5 -322 -9z
m811 -1458 c-1 -240 -2 -43 -2 438 0 481 1 678 2 437 2 -240 2 -634 0 -875z
m-729 1226 c13 -13 16 -96 4 -114 -9 -14 -118 -18 -126 -5 -13 20 -9 113 5
122 21 13 103 11 117 -3z m206 -4 c18 -18 21 -85 6 -115 -9 -15 -22 -19 -63
-19 -29 0 -58 5 -65 12 -16 16 -16 110 0 126 18 18 103 15 122 -4z m204 4 c7
-7 12 -38 12 -69 0 -63 -6 -69 -70 -69 -65 0 -70 5 -70 75 0 41 4 65 13 68 24
10 103 7 115 -5z m210 0 c14 -14 16 -96 3 -116 -5 -9 -26 -12 -67 -10 l-59 3
-6 50 c-9 72 1 85 64 85 29 0 58 -5 65 -12z m-205 -248 c4 -4 7 -34 5 -66 l-3
-59 -65 0 -65 0 0 64 c0 43 4 66 13 69 15 5 17 -54 2 -63 -5 -3 -10 -12 -10
-18 0 -7 7 -4 14 6 11 15 15 15 19 3 3 -8 1 -17 -6 -20 -9 -3 -9 -5 0 -5 18
-1 27 19 14 32 -18 18 -13 65 7 70 20 5 63 -2 75 -13z m-408 -300 l0 -65 -60
-3 c-67 -4 -85 9 -85 62 0 72 6 77 79 74 l66 -3 0 -65z m205 51 c15 -28 12
-97 -4 -110 -9 -7 -38 -11 -73 -9 l-58 3 -3 44 c-6 83 0 91 68 91 48 0 61 -4
70 -19z m415 -4 c4 -13 5 -43 3 -68 l-3 -44 -60 -3 c-69 -4 -85 9 -85 69 0 64
5 69 76 69 58 0 64 -2 69 -23z m-627 -229 c15 -15 16 -82 2 -109 -8 -14 -21
-19 -55 -19 -70 0 -75 5 -75 70 0 37 5 60 13 63 24 10 103 7 115 -5z m0 -240
c7 -7 12 -35 12 -63 0 -28 -5 -56 -12 -63 -18 -18 -103 -15 -122 4 -10 9 -16
33 -16 59 0 26 6 50 16 59 19 19 104 22 122 4z m212 -7 c5 -11 10 -36 10 -56
0 -61 -13 -75 -73 -75 -29 0 -58 5 -65 12 -16 16 -16 110 0 126 7 7 36 12 65
12 41 0 54 -4 63 -19z m-212 -576 c18 -6 16 -100 -4 -119 -16 -16 -61 -21
-101 -10 -21 6 -23 12 -23 69 0 58 2 64 23 68 22 4 82 -1 105 -8z m206 -1 c18
-18 21 -85 6 -115 -9 -15 -22 -19 -63 -19 -29 0 -58 5 -65 12 -20 20 -15 115
6 127 27 16 98 13 116 -5z m214 -62 c-3 -54 -4 -57 -35 -66 -21 -5 -45 -5 -65
0 -32 10 -33 11 -33 69 l0 60 50 5 c76 8 87 0 83 -68z m193 68 c15 -9 19 -22
19 -63 0 -29 -5 -58 -12 -65 -7 -7 -36 -12 -65 -12 -41 0 -54 4 -63 19 -15 30
-12 97 6 115 18 18 85 21 115 6z"/>
</g>
</svg>
